<svg width="50" height="50" viewBox="0 0 50 50" fill="none" xmlns="http://www.w3.org/2000/svg">
<path d="M32.5388 15.411C34.9973 15.2922 35.3755 19.2862 32.6774 18.9362C30.4395 18.8737 30.1558 15.4735 32.5388 15.411Z" fill="#262E2B" fill-opacity="0.5"/>
<path d="M40.5953 24.9239C40.7907 10.6294 35.0162 8.77935 21.8471 9.57314C12.7756 8.87936 9.21375 15.6922 9.18856 23.7489C8.69686 31.6368 11.1491 41.606 21.0528 40.7685C33.415 40.5497 41.169 39.3059 40.5953 24.9239ZM18.9787 0.322692C33.1376 -0.983623 49.5281 1.02898 49.7235 18.5986C50.2215 26.6865 50.4863 35.3557 46.4895 42.6936C42.2343 49.8689 35.1423 49.5689 27.7666 49.7377C21.2797 49.9939 14.5911 50.5502 8.33753 48.4439C1.96413 46.2563 0.230511 41.4873 0.369203 35.2494C0.148564 29.8804 -0.0720821 24.5239 0.0224831 19.1486C0.337681 6.41047 5.94828 0.0289292 18.9787 0.322692Z" fill="#262E2B" fill-opacity="0.5"/>
<path d="M25.9701 19.5674C19.5526 19.2424 17.5731 29.7242 24.6147 30.0055C31.234 29.8492 32.2489 21.4363 25.9701 19.5674ZM24.6273 17.161C35.7098 16.4172 35.029 32.6556 24.5769 32.5431C14.6733 32.243 15.6 18.0361 24.6273 17.161Z" fill="#262E2B" fill-opacity="0.5"/>
</svg>
