<svg width="51" height="50" viewBox="0 0 51 50" fill="none" xmlns="http://www.w3.org/2000/svg">
<path d="M18.1768 0.224502C28.4234 0.262 42.4012 -2.21307 48.3106 8.41222C50.4508 12.4811 50.0341 17.2063 50.2551 21.6502C50.3876 25.6065 50.4761 29.5629 50.2172 33.5068C48.4179 48.201 40.7913 50.1323 27.3691 49.9823C21.7754 50.1198 16.1502 49.4573 10.7523 48.0134C4.72929 46.8072 1.06124 41.157 0.777134 35.3318C0.347825 25.8753 -0.706512 13.5437 4.32523 5.17465C7.46931 0.843268 13.2903 0.730768 18.1768 0.224502ZM43.0578 23.8314C43.8849 8.69978 29.1494 11.8061 18.7008 12.0248C9.31917 12.2749 9.68529 20.0813 9.95047 27.1941C9.31284 36.7944 16.7879 36.6819 24.2439 36.5694C34.3959 36.6194 44.2006 37.3131 43.0578 23.8314Z" fill="#262E2B" fill-opacity="0.5"/>
<mask id="mask0_22_115" style="mask-type:alpha" maskUnits="userSpaceOnUse" x="9" y="11" width="35" height="26">
<path d="M24.0042 20.5751C22.167 20.0688 22.59 23.3814 22.489 24.4877C22.7667 25.3439 22.1796 29.5066 23.6506 28.8378C25.9102 27.8058 27.8158 26.3067 29.7837 24.7927C30.219 24.4578 30.1671 23.7836 29.696 23.5001C27.8347 22.3798 26.1351 21.0998 24.0042 20.5751ZM18.7009 12.0248C29.1432 11.8061 43.885 8.69971 43.0516 23.8314C44.1943 37.3131 34.396 36.613 24.2441 36.5693C16.7879 36.6818 9.30658 36.7881 9.95053 27.194C9.68541 20.0813 9.32555 12.2748 18.7009 12.0248Z" fill="white"/>
</mask>
<g mask="url(#mask0_22_115)">
</g>
<path d="M22.4887 24.4878C22.5897 23.3816 22.1668 20.0627 24.0039 20.5752C26.135 21.1 27.8302 22.3801 29.694 23.5004C30.1656 23.7838 30.2179 24.4587 29.7823 24.7938C27.8149 26.3074 25.9095 27.8061 23.6504 28.838C22.1794 29.5068 22.7665 25.3441 22.4887 24.4878Z" fill="#262E2B" fill-opacity="0.5"/>
</svg>
