<svg width="51" height="50" viewBox="0 0 51 50" fill="none" xmlns="http://www.w3.org/2000/svg">
<path d="M50.2263 28.1908C50.0734 22.9714 49.8249 17.7519 49.4553 12.5262C47.8941 0.455874 39.2471 -0.725534 28.6947 0.280851C24.8523 0.462126 20.9589 0.068326 17.0846 0.41212C13.7137 0.580891 10.1262 0.737162 7.16311 2.51867C3.95154 4.36265 2.2756 7.75684 1.62565 11.2386C1.03942 14.1577 0.542391 17.0706 0.510528 20.0585C0.255641 23.9528 0.395826 27.8533 0.739927 31.7476C1.0203 35.1418 1.35169 38.561 2.63882 41.7551C4.00883 45.0056 6.72977 47.0121 9.88399 48.2373C12.5157 49.2624 15.4469 49.7375 18.1615 49.9375C18.8688 50.2125 18.6458 49.3312 18.7032 48.9186C18.9707 44.5305 19.2002 40.1487 19.3595 35.7543C19.3276 35.7543 19.3021 35.7543 19.2702 35.7543C19.1046 34.773 19.6653 31.3787 18.8879 30.9975C17.416 30.9537 14.4783 31.635 14.3637 29.5285C14.6058 27.5845 13.2868 22.0087 16.2881 22.015C16.9062 21.8775 18.9389 22.1525 19.13 21.6087C19.3849 19.0959 19.5825 16.5456 20.7805 14.2577C22.1696 11.1135 25.7125 9.83215 29.0006 9.78214C30.7593 9.94462 35.9208 9.30079 35.6723 11.9511C35.3346 13.6201 35.9845 18.4583 33.7606 18.6771C31.5685 18.9208 28.2933 19.2959 29.4212 22.2775C29.5613 23.1651 33.665 22.5776 34.6527 22.8339C37.157 22.9776 35.8316 26.0218 35.7997 27.5782C35.4747 28.6284 35.6149 30.4662 34.2003 30.6786C33.2572 30.8849 28.7967 30.6286 28.631 31.3225C28.4589 37.4483 28.3315 43.5742 28.1977 49.6999C28.2423 50.2813 29.402 49.7625 29.829 49.8437C30.4216 49.7937 31.0078 49.8937 31.6132 49.7437C34.0282 49.5312 36.5452 49.4749 38.9348 49.1186C42.5096 48.5811 45.7913 47.3621 47.9578 43.8992C50.8126 39.2173 50.4621 33.4415 50.2263 28.1908Z" fill="#262E2B" fill-opacity="0.5"/>
<mask id="mask0_22_113" style="mask-type:alpha" maskUnits="userSpaceOnUse" x="14" y="9" width="23" height="41">
<path d="M29.8356 49.8313C29.4086 49.7562 28.2489 50.2688 28.2043 49.6874C28.3444 43.5617 28.4655 37.4358 28.6376 31.31C28.8032 30.6099 33.2638 30.8662 34.2069 30.6662C35.6151 30.4537 35.4813 28.6159 35.8063 27.5657C35.8382 26.003 37.1636 22.9651 34.6593 22.8214C33.6716 22.5651 29.5679 23.1526 29.4277 22.265C28.2999 19.2834 31.5752 18.9083 33.7672 18.6646C35.9911 18.4458 35.3347 13.6076 35.6789 11.9387C35.9274 9.2883 30.7659 9.93839 29.0072 9.76965C25.7191 9.81966 22.1762 11.1011 20.787 14.2452C19.5827 16.5331 19.3916 19.0834 19.1367 21.5962C18.9455 22.1338 16.9127 21.8587 16.2946 22.0025C13.2997 21.9963 14.6124 27.572 14.3703 29.516C14.485 31.6225 17.4289 30.9412 18.8945 30.985C19.6719 31.3662 19.1112 34.7667 19.2768 35.7419C19.3087 35.7419 19.3342 35.7419 19.366 35.7419C19.2003 40.1299 18.9774 44.518 18.7097 48.9061C18.646 49.3124 18.8754 50.2 18.1681 49.925C15.4535 49.725 21.2777 49.1874 18.646 48.1623V49.9375L28.2871 50V49.0999C25.8975 49.4562 34.0348 49.5124 31.6198 49.725C31.0144 49.8813 30.4218 49.7813 29.8356 49.8313Z" fill="white"/>
</mask>
<g mask="url(#mask0_22_113)">
</g>
</svg>
